<svg width="33" height="27" viewBox="0 0 33 27" fill="none" xmlns="http://www.w3.org/2000/svg">
<path d="M14.7805 7.87476C14.1742 7.87476 13.6829 8.46228 13.6829 9.18722V16.8869C13.6829 17.6118 14.1742 18.1994 14.7805 18.1994C15.3867 18.1994 15.8781 17.6118 15.8781 16.8869V9.18722C15.878 8.46228 15.3867 7.87476 14.7805 7.87476Z" fill="#D904A0"/>
<path d="M11.3781 3.80621C10.7718 3.80621 10.2805 4.39374 10.2805 5.11868V20.9561C10.2805 21.681 10.7718 22.2685 11.3781 22.2685C11.9843 22.2685 12.4757 21.681 12.4757 20.9557V5.1186C12.4757 4.39374 11.9843 3.80621 11.3781 3.80621Z" fill="#D904A0"/>
<path d="M7.93913 0C7.33288 0 6.84155 0.587524 6.84155 1.31247V24.7616C6.84155 25.4866 7.33288 26.0741 7.93913 26.0741C8.54537 26.0741 9.0367 25.4866 9.0367 24.7616V1.31247C9.0367 0.587524 8.54537 0 7.93913 0Z" fill="#D904A0"/>
<path d="M4.53666 3.80621C3.93041 3.80621 3.43909 4.39374 3.43909 5.11868V20.9561C3.43909 21.681 3.93041 22.2685 4.53666 22.2685C5.14291 22.2685 5.63423 21.681 5.63423 20.9557V5.1186C5.63423 4.39374 5.14284 3.80621 4.53666 3.80621Z" fill="#D904A0"/>
<path d="M1.09757 7.61218C0.491326 7.61218 0 8.19971 0 8.92465V17.1494C0 17.8743 0.491326 18.4618 1.09757 18.4618C1.70382 18.4618 2.19514 17.8747 2.19514 17.1494V8.92465C2.19514 8.19971 1.70375 7.61218 1.09757 7.61218Z" fill="#D904A0"/>
<path d="M25.061 0C24.4548 0 23.9634 0.587524 23.9634 1.31247V24.7616C23.9634 25.4866 24.4548 26.0741 25.061 26.0741C25.6673 26.0741 26.1586 25.4866 26.1586 24.7616V1.31247C26.1586 0.587524 25.6672 0 25.061 0Z" fill="#D904A0"/>
<path d="M21.6219 3.80621C21.0157 3.80621 20.5244 4.39374 20.5244 5.11868V20.9561C20.5244 21.681 21.0157 22.2685 21.6219 22.2685C22.2282 22.2685 22.7195 21.681 22.7195 20.9557V5.1186C22.7195 4.39374 22.2281 3.80621 21.6219 3.80621Z" fill="#D904A0"/>
<path d="M18.2196 5.8623C17.6133 5.8623 17.122 6.44983 17.122 7.17477V18.8993C17.122 19.6243 17.6133 20.2118 18.2196 20.2118C18.8258 20.2118 19.3172 19.6247 19.3172 18.8993V7.17477C19.3171 6.44983 18.8258 5.8623 18.2196 5.8623Z" fill="#D904A0"/>
<path d="M28.4634 3.80621C27.8571 3.80621 27.3658 4.39374 27.3658 5.11868V20.9561C27.3658 21.681 27.8571 22.2685 28.4634 22.2685C29.0696 22.2685 29.5609 21.681 29.5609 20.9557V5.1186C29.5609 4.39374 29.0696 3.80621 28.4634 3.80621Z" fill="#D904A0"/>
<path d="M31.9024 7.61218C31.2962 7.61218 30.8049 8.19971 30.8049 8.92465V17.1494C30.8049 17.8743 31.2962 18.4618 31.9024 18.4618C32.5087 18.4618 33 17.8747 33 17.1494V8.92465C33 8.19971 32.5087 7.61218 31.9024 7.61218Z" fill="#D904A0"/>
</svg>
